<?xml version="1.0" encoding="UTF-8"?>
<svg id="Layer_2" data-name="Layer 2" xmlns="http://www.w3.org/2000/svg" xmlns:xlink="http://www.w3.org/1999/xlink" viewBox="0 0 1845.39 954.88">
  <defs>
    <style>
      .cls-1, .cls-2 {
        fill: none;
      }

      .cls-3 {
        filter: url(#drop-shadow-1);
      }

      .cls-4 {
        fill: #062e35;
      }

      .cls-5 {
        fill: url(#linear-gradient-5);
      }

      .cls-6 {
        fill: url(#linear-gradient-4);
      }

      .cls-7 {
        fill: url(#linear-gradient-3);
      }

      .cls-8 {
        fill: url(#linear-gradient-2);
      }

      .cls-9 {
        fill: url(#linear-gradient);
      }

      .cls-10 {
        opacity: .77;
      }

      .cls-11 {
        opacity: .38;
      }

      .cls-12 {
        opacity: .27;
      }

      .cls-13 {
        opacity: .12;
      }

      .cls-14 {
        fill: #fff;
      }

      .cls-14, .cls-2 {
        stroke: #fff;
        stroke-miterlimit: 10;
      }

      .cls-15 {
        clip-path: url(#clippath);
      }

      .cls-2 {
        stroke-width: 2px;
      }
    </style>
    <linearGradient id="linear-gradient" x1="334.29" y1="301.41" x2="783.91" y2="751.03" gradientUnits="userSpaceOnUse">
      <stop offset="0" stop-color="#4cb079"/>
      <stop offset=".13" stop-color="#49a676"/>
      <stop offset=".35" stop-color="#428c71"/>
      <stop offset=".63" stop-color="#366367"/>
      <stop offset=".96" stop-color="#26295a"/>
      <stop offset=".99" stop-color="#252359"/>
    </linearGradient>
    <linearGradient id="linear-gradient-2" x1="285.8" y1="252.92" x2="792.22" y2="759.34" gradientUnits="userSpaceOnUse">
      <stop offset=".85" stop-color="#552c61"/>
      <stop offset="1" stop-color="#100d3d"/>
    </linearGradient>
    <filter id="drop-shadow-1" x="0" y="84.54" width="689.3" height="877.34" filterUnits="userSpaceOnUse">
      <feOffset dx="19" dy="7"/>
      <feGaussianBlur result="blur" stdDeviation="0"/>
      <feFlood flood-color="#fff" flood-opacity="1"/>
      <feComposite in2="blur" operator="in"/>
      <feComposite in="SourceGraphic"/>
    </filter>
    <linearGradient id="linear-gradient-3" x1="130.67" y1="385.95" x2="580.29" y2="835.57" gradientUnits="userSpaceOnUse">
      <stop offset="0" stop-color="#da364c"/>
      <stop offset=".11" stop-color="#d0354c"/>
      <stop offset=".29" stop-color="#b6324e"/>
      <stop offset=".52" stop-color="#8d2d51"/>
      <stop offset=".79" stop-color="#532755"/>
      <stop offset=".99" stop-color="#252359"/>
    </linearGradient>
    <linearGradient id="linear-gradient-4" x1="82.18" y1="337.47" x2="588.6" y2="843.88" xlink:href="#linear-gradient-2"/>
    <clipPath id="clippath">
      <path class="cls-1" d="M670.3,631.86c0,178.4-150.05,323.02-335.15,323.02S0,810.25,0,631.86C0,391.62,335.15,84.54,335.15,84.54c0,0,335.15,307.08,335.15,547.31Z"/>
    </clipPath>
    <linearGradient id="linear-gradient-5" x1="82.18" y1="337.47" x2="588.6" y2="843.88" xlink:href="#linear-gradient-2"/>
  </defs>
  <g id="Objects">
    <g>
      <path class="cls-9" d="M873.92,547.31c0,178.4-150.05,323.02-335.15,323.02s-335.15-144.62-335.15-323.02C203.62,307.08,538.77,0,538.77,0c0,0,335.15,307.08,335.15,547.31Z"/>
      <g class="cls-12">
        <path class="cls-8" d="M873.91,547.32c0,178.4-150.05,323.02-335.15,323.02-156.13,0-287.33-102.9-324.56-242.18,54.69,93.98,159.06,157.5,278.82,157.5,176.43,0,319.47-137.86,319.47-307.9S626.33,91.02,538.22.5c.36-.34.54-.5.54-.5,0,0,335.15,307.08,335.15,547.32Z"/>
      </g>
    </g>
    <g>
      <g class="cls-3">
        <path class="cls-7" d="M670.3,631.86c0,178.4-150.05,323.02-335.15,323.02S0,810.25,0,631.86C0,391.62,335.15,84.54,335.15,84.54c0,0,335.15,307.08,335.15,547.31Z"/>
      </g>
      <g class="cls-11">
        <path class="cls-6" d="M670.3,631.86c0,178.4-150.05,323.02-335.15,323.02-156.13,0-287.33-102.9-324.56-242.18,54.69,93.98,159.06,157.5,278.82,157.5,176.43,0,319.47-137.86,319.47-307.9S422.71,175.56,334.6,85.04c.36-.34.54-.5.54-.5,0,0,335.15,307.08,335.15,547.32Z"/>
      </g>
    </g>
    <g id="background">
      <g class="cls-15">
        <g class="cls-10">
          <g>
            <ellipse class="cls-14" cx="23.48" cy="793.33" rx="2.87" ry="3.07" transform="translate(-769.65 763.72) rotate(-86.17)"/>
            <ellipse class="cls-14" cx="84.68" cy="751.64" rx="2.87" ry="3.07" transform="translate(-670.95 785.88) rotate(-86.17)"/>
            <ellipse class="cls-14" cx="95.66" cy="818.03" rx="2.87" ry="3.07" transform="translate(-726.94 858.79) rotate(-86.17)"/>
            <ellipse class="cls-14" cx="94.48" cy="768.84" rx="2.87" ry="3.07" transform="translate(-678.96 811.71) rotate(-86.17)"/>
            <ellipse class="cls-14" cx="63.33" cy="820.16" rx="2.87" ry="3.07" transform="translate(-759.23 828.52) rotate(-86.17)"/>
            <ellipse class="cls-14" cx="87.39" cy="849.6" rx="2.87" ry="3.07" transform="translate(-766.15 880) rotate(-86.17)"/>
            <ellipse class="cls-14" cx="27.61" cy="823.52" rx="2.87" ry="3.07" transform="translate(-795.91 796.01) rotate(-86.17)"/>
            <ellipse class="cls-14" cx="81.49" cy="789.37" rx="2.87" ry="3.07" transform="translate(-711.56 817.91) rotate(-86.17)"/>
            <ellipse class="cls-14" cx="54.57" cy="771.92" rx="2.87" ry="3.07" transform="translate(-719.27 774.76) rotate(-86.17)"/>
            <ellipse class="cls-14" cx="143.34" cy="761.33" rx="2.87" ry="3.07" transform="translate(-625.87 853.45) rotate(-86.17)"/>
            <ellipse class="cls-14" cx="145.49" cy="783.76" rx="2.87" ry="3.07" transform="translate(-646.25 876.53) rotate(-86.17)"/>
            <ellipse class="cls-14" cx="142.98" cy="812.58" rx="2.87" ry="3.07" transform="translate(-677.34 900.91) rotate(-86.17)"/>
            <ellipse class="cls-14" cx="133.54" cy="838.33" rx="2.87" ry="3.07" transform="translate(-711.84 915.52) rotate(-86.17)"/>
            <ellipse class="cls-14" cx="122.52" cy="849.08" rx="2.87" ry="3.07" transform="translate(-732.85 914.56) rotate(-86.17)"/>
            <ellipse class="cls-14" cx="115.47" cy="862.38" rx="2.87" ry="3.07" transform="translate(-752.7 919.94) rotate(-86.17)"/>
            <ellipse class="cls-14" cx="89.54" cy="863.52" rx="2.87" ry="3.07" transform="translate(-778.04 895.13) rotate(-86.17)"/>
            <ellipse class="cls-14" cx="143.33" cy="899.25" rx="2.87" ry="3.07" transform="translate(-763.49 982.14) rotate(-86.17)"/>
            <ellipse class="cls-14" cx="216.72" cy="929.65" rx="2.87" ry="3.07" transform="translate(-725.34 1083.72) rotate(-86.17)"/>
            <ellipse class="cls-14" cx="260.99" cy="913.11" rx="2.87" ry="3.07" transform="translate(-667.53 1112.47) rotate(-86.17)"/>
            <ellipse class="cls-14" cx="265.99" cy="891.57" rx="2.87" ry="3.07" transform="translate(-641.37 1097.36) rotate(-86.17)"/>
            <ellipse class="cls-14" cx="292.16" cy="865.6" rx="2.87" ry="3.07" transform="translate(-591.03 1099.23) rotate(-86.17)"/>
            <ellipse class="cls-14" cx="258.13" cy="863.92" rx="2.87" ry="3.07" transform="translate(-621.11 1063.71) rotate(-86.17)"/>
            <ellipse class="cls-14" cx="321.53" cy="837.46" rx="2.87" ry="3.07" transform="translate(-535.56 1102.28) rotate(-86.17)"/>
            <ellipse class="cls-14" cx="319.88" cy="816.07" rx="2.87" ry="3.07" transform="translate(-515.75 1080.67) rotate(-86.17)"/>
            <ellipse class="cls-14" cx="345.42" cy="779.9" rx="2.87" ry="3.07" transform="translate(-455.84 1072.41) rotate(-86.17)"/>
            <ellipse class="cls-14" cx="369.42" cy="748.38" rx="2.87" ry="3.07" transform="translate(-401.99 1066.93) rotate(-86.17)"/>
            <ellipse class="cls-14" cx="323.99" cy="750.1" rx="2.87" ry="3.07" transform="translate(-446.09 1023.22) rotate(-86.17)"/>
            <ellipse class="cls-14" cx="346.43" cy="718.77" rx="2.87" ry="3.07" transform="translate(-393.89 1016.37) rotate(-86.17)"/>
            <ellipse class="cls-14" cx="310.42" cy="716.36" rx="2.87" ry="3.07" transform="translate(-425.09 978.19) rotate(-86.17)"/>
            <ellipse class="cls-14" cx="354.18" cy="695.06" rx="2.87" ry="3.07" transform="translate(-363.01 1001.98) rotate(-86.17)"/>
            <ellipse class="cls-14" cx="381.95" cy="721.15" rx="2.87" ry="3.07" transform="translate(-363.12 1054.03) rotate(-86.17)"/>
            <ellipse class="cls-14" cx="410.65" cy="693.09" rx="2.87" ry="3.07" transform="translate(-308.34 1056.49) rotate(-86.17)"/>
            <ellipse class="cls-14" cx="418.21" cy="743.02" rx="2.87" ry="3.07" transform="translate(-351.11 1110.62) rotate(-86.17)"/>
            <ellipse class="cls-14" cx="463.81" cy="708.16" rx="2.87" ry="3.07" transform="translate(-273.77 1123.59) rotate(-86.17)"/>
            <ellipse class="cls-14" cx="503.24" cy="722.29" rx="2.87" ry="3.07" transform="translate(-251.08 1176.12) rotate(-86.17)"/>
            <ellipse class="cls-14" cx="482.76" cy="748.74" rx="2.87" ry="3.07" transform="translate(-296.58 1180.36) rotate(-86.17)"/>
            <ellipse class="cls-14" cx="455.62" cy="784.41" rx="2.87" ry="3.07" transform="translate(-357.49 1186.57) rotate(-86.17)"/>
            <ellipse class="cls-14" cx="433.43" cy="800.18" rx="2.87" ry="3.07" transform="translate(-393.94 1179.15) rotate(-86.17)"/>
            <ellipse class="cls-14" cx="405.57" cy="814.95" rx="2.87" ry="3.07" transform="translate(-434.68 1165.13) rotate(-86.17)"/>
            <ellipse class="cls-14" cx="356.04" cy="856.11" rx="2.87" ry="3.07" transform="translate(-521.96 1154.12) rotate(-86.17)"/>
            <ellipse class="cls-14" cx="308.17" cy="894.4" rx="2.87" ry="3.07" transform="translate(-604.83 1142.08) rotate(-86.17)"/>
            <ellipse class="cls-14" cx="311.14" cy="946.56" rx="2.87" ry="3.07" transform="translate(-654.1 1193.71) rotate(-86.17)"/>
            <ellipse class="cls-14" cx="347.95" cy="884.94" rx="2.87" ry="3.07" transform="translate(-558.27 1172.95) rotate(-86.17)"/>
            <ellipse class="cls-14" cx="384.38" cy="880.19" rx="2.87" ry="3.07" transform="translate(-519.54 1204.86) rotate(-86.17)"/>
            <ellipse class="cls-14" cx="398.79" cy="900.47" rx="2.87" ry="3.07" transform="translate(-526.33 1238.16) rotate(-86.17)"/>
            <ellipse class="cls-14" cx="355.42" cy="957.23" rx="2.87" ry="3.07" transform="translate(-623.43 1247.86) rotate(-86.17)"/>
            <ellipse class="cls-14" cx="421.22" cy="915" rx="2.87" ry="3.07" transform="translate(-519.89 1274.11) rotate(-86.17)"/>
            <ellipse class="cls-14" cx="448.52" cy="890.45" rx="2.87" ry="3.07" transform="translate(-469.93 1278.44) rotate(-86.17)"/>
            <ellipse class="cls-14" cx="421.7" cy="861.92" rx="2.87" ry="3.07" transform="translate(-466.48 1225.06) rotate(-86.17)"/>
            <ellipse class="cls-14" cx="510.4" cy="860.7" rx="2.87" ry="3.07" transform="translate(-382.51 1312.41) rotate(-86.17)"/>
            <ellipse class="cls-14" cx="539.63" cy="839.15" rx="2.87" ry="3.07" transform="translate(-333.73 1321.47) rotate(-86.17)"/>
            <ellipse class="cls-14" cx="614.29" cy="854.2" rx="2.87" ry="3.07" transform="translate(-279.07 1410.01) rotate(-86.17)"/>
            <ellipse class="cls-14" cx="592.13" cy="891.45" rx="2.87" ry="3.07" transform="translate(-336.91 1422.65) rotate(-86.17)"/>
            <ellipse class="cls-14" cx="517.51" cy="896.92" rx="2.87" ry="3.07" transform="translate(-411.99 1353.31) rotate(-86.17)"/>
            <ellipse class="cls-14" cx="496.15" cy="920.02" rx="2.87" ry="3.07" transform="translate(-454.98 1353.55) rotate(-86.17)"/>
            <ellipse class="cls-14" cx="434.27" cy="951.93" rx="2.87" ry="3.07" transform="translate(-544.56 1321.59) rotate(-86.17)"/>
            <ellipse class="cls-14" cx="405.46" cy="948.05" rx="2.87" ry="3.07" transform="translate(-567.57 1289.22) rotate(-86.17)"/>
            <ellipse class="cls-14" cx="522.63" cy="939.27" rx="2.87" ry="3.07" transform="translate(-449.49 1397.94) rotate(-86.17)"/>
            <ellipse class="cls-14" cx="264.79" cy="955.37" rx="2.87" ry="3.07" transform="translate(-706.15 1155.7) rotate(-86.17)"/>
            <ellipse class="cls-14" cx="444.5" cy="928.29" rx="2.87" ry="3.07" transform="translate(-511.43 1309.73) rotate(-86.17)"/>
            <ellipse class="cls-14" cx="356.16" cy="913.51" rx="2.87" ry="3.07" transform="translate(-579.12 1207.8) rotate(-86.17)"/>
            <ellipse class="cls-14" cx="324.45" cy="915.37" rx="2.87" ry="3.07" transform="translate(-610.57 1177.89) rotate(-86.17)"/>
            <ellipse class="cls-14" cx="370.75" cy="934.24" rx="2.87" ry="3.07" transform="translate(-586.19 1241.7) rotate(-86.17)"/>
            <ellipse class="cls-14" cx="365.86" cy="801.41" rx="2.87" ry="3.07" transform="translate(-458.21 1112.87) rotate(-86.17)"/>
            <ellipse class="cls-14" cx="565" cy="764.36" rx="2.87" ry="3.07" transform="translate(-235.42 1277) rotate(-86.17)"/>
            <ellipse class="cls-14" cx="596.7" cy="792.76" rx="2.87" ry="3.07" transform="translate(-234.17 1335.12) rotate(-86.17)"/>
            <ellipse class="cls-14" cx="492.32" cy="793.51" rx="2.87" ry="3.07" transform="translate(-332.33 1231.67) rotate(-86.17)"/>
            <ellipse class="cls-14" cx="509.33" cy="815.16" rx="2.87" ry="3.07" transform="translate(-338.06 1268.86) rotate(-86.17)"/>
            <path class="cls-14" d="M540.31,799.65c-1.27,1.04-3.21.91-4.33-.29s-1-3.01.27-4.05,3.21-.91,4.33.29,1,3.01-.27,4.05Z"/>
            <path class="cls-14" d="M517.45,775.22c-1.27,1.04-3.21.91-4.33-.29s-1-3.01.27-4.05,3.21-.91,4.33.29,1,3.01-.27,4.05Z"/>
            <ellipse class="cls-14" cx="489.48" cy="835.79" rx="2.87" ry="3.07" transform="translate(-377.17 1268.3) rotate(-86.17)"/>
            <ellipse class="cls-14" cx="470.85" cy="816.45" rx="2.87" ry="3.07" transform="translate(-375.25 1231.66) rotate(-86.17)"/>
            <ellipse class="cls-14" cx="560.63" cy="875.56" rx="2.87" ry="3.07" transform="translate(-350.45 1376.4) rotate(-86.17)"/>
            <ellipse class="cls-14" cx="572.15" cy="840.27" rx="2.87" ry="3.07" transform="translate(-304.49 1354.96) rotate(-86.17)"/>
            <ellipse class="cls-14" cx="207.47" cy="857.65" rx="2.87" ry="3.07" transform="translate(-662.13 1007.31) rotate(-86.17)"/>
            <ellipse class="cls-14" cx="190.2" cy="889.37" rx="2.87" ry="3.07" transform="translate(-709.9 1019.68) rotate(-86.17)"/>
            <ellipse class="cls-14" cx="160.03" cy="859.62" rx="2.87" ry="3.07" transform="translate(-708.36 961.82) rotate(-86.17)"/>
            <ellipse class="cls-14" cx="203.99" cy="819.54" rx="2.87" ry="3.07" transform="translate(-627.36 968.28) rotate(-86.17)"/>
            <ellipse class="cls-14" cx="177.8" cy="803.67" rx="2.87" ry="3.07" transform="translate(-635.96 927.34) rotate(-86.17)"/>
            <ellipse class="cls-14" cx="233.65" cy="778.17" rx="2.87" ry="3.07" transform="translate(-558.39 959.27) rotate(-86.17)"/>
            <ellipse class="cls-14" cx="189.32" cy="778.51" rx="2.87" ry="3.07" transform="translate(-600.1 915.35) rotate(-86.17)"/>
            <ellipse class="cls-14" cx="217.65" cy="751.6" rx="2.87" ry="3.07" transform="translate(-546.82 918.52) rotate(-86.17)"/>
            <ellipse class="cls-14" cx="159.26" cy="741.94" rx="2.87" ry="3.07" transform="translate(-591.67 851.24) rotate(-86.17)"/>
            <ellipse class="cls-14" cx="226.62" cy="735.93" rx="2.87" ry="3.07" transform="translate(-522.82 912.84) rotate(-86.17)"/>
            <ellipse class="cls-14" cx="243.65" cy="722.53" rx="2.87" ry="3.07" transform="translate(-493.55 917.33) rotate(-86.17)"/>
            <ellipse class="cls-14" cx="268.91" cy="703.01" rx="2.87" ry="3.07" transform="translate(-450.51 924.32) rotate(-86.17)"/>
            <ellipse class="cls-14" cx="266.72" cy="735.74" rx="2.87" ry="3.07" transform="translate(-485.21 952.68) rotate(-86.17)"/>
            <ellipse class="cls-14" cx="277.58" cy="764.57" rx="2.87" ry="3.07" transform="translate(-503.84 990.41) rotate(-86.17)"/>
            <ellipse class="cls-14" cx="294.85" cy="803.67" rx="2.87" ry="3.07" transform="translate(-526.73 1044.13) rotate(-86.17)"/>
            <ellipse class="cls-14" cx="284.64" cy="826.36" rx="2.87" ry="3.07" transform="translate(-558.9 1055.12) rotate(-86.17)"/>
            <ellipse class="cls-14" cx="263.05" cy="836.42" rx="2.87" ry="3.07" transform="translate(-589.08 1042.96) rotate(-86.17)"/>
          </g>
          <g>
            <polygon class="cls-2" points="23.48 793.33 54.57 771.92 82.15 789.42 23.48 793.33"/>
            <polygon class="cls-2" points="27.54 824.56 23.39 794.62 63.43 818.75 27.54 824.56"/>
            <polygon class="cls-2" points="81.27 790.35 63.43 818.75 95.66 818.03 81.27 790.35"/>
            <polygon class="cls-2" points="54.57 771.92 84.68 751.64 94.48 768.84 54.57 771.92"/>
            <polygon class="cls-2" points="94.43 769.71 82.15 789.42 146.26 785.38 94.43 769.71"/>
            <polygon class="cls-2" points="87.22 750.05 160.06 741.99 143.27 762.37 85.48 751.7 87.22 750.05"/>
            <polygon class="cls-2" points="143.15 764.19 144.92 783.73 189.51 779.11 143.27 762.37 143.15 764.19"/>
            <polygon class="cls-2" points="217.65 751.6 160.06 741.99 189.51 779.11 217.65 751.6"/>
            <polygon class="cls-2" points="226.62 735.93 160.13 740.98 244.78 722.61 226.62 735.93"/>
            <polygon class="cls-2" points="217.65 751.6 226.5 737.63 265.14 737.03 234.57 778.23 217.65 751.6"/>
            <polygon class="cls-2" points="27.54 824.56 87.39 849.6 96.56 818.09 62.21 818.95 27.54 824.56"/>
            <polygon class="cls-2" points="87.29 851.09 89.46 864.66 27.54 824.56 87.39 849.6 87.29 851.09"/>
            <polygon class="cls-2" points="143.33 899.25 89.46 864.66 115.47 862.38 143.33 899.25"/>
            <polygon class="cls-2" points="98.73 818.24 142.98 812.58 133.54 838.33 96.56 818.09 98.73 818.24"/>
            <polygon class="cls-2" points="122.52 849.08 133.02 839.7 160.03 859.62 115.47 862.38 122.52 849.08"/>
            <polygon class="cls-2" points="143.05 811.51 144.92 783.73 178.7 802.63 143.05 811.51"/>
            <polygon class="cls-2" points="143.24 900.53 216.65 930.57 190.2 889.37 143.33 899.25 143.24 900.53"/>
            <polygon class="cls-2" points="160.39 860.25 190.2 889.37 207.47 857.65 160.39 860.25"/>
            <polygon class="cls-2" points="178.54 805.01 160.03 859.62 205.14 819.62 178.63 803.73 178.54 805.01"/>
            <polygon class="cls-2" points="207.54 856.62 205.05 821.03 263.05 836.42 207.47 857.65 207.54 856.62"/>
            <polygon class="cls-2" points="205.26 817.85 233.59 779.04 294.85 803.67 205.26 817.85"/>
            <polygon class="cls-2" points="266.72 735.74 277.58 764.57 323.99 750.1 266.72 735.74"/>
            <polygon class="cls-2" points="277.48 765.95 294.94 802.42 345.42 779.9 277.48 765.95"/>
            <polygon class="cls-2" points="242.86 722.48 267.42 702.91 266.72 735.74 242.86 722.48"/>
            <polygon class="cls-2" points="268.91 703.01 310.42 716.36 355.31 695.14 269.05 700.85 268.91 703.01"/>
            <polygon class="cls-2" points="310.86 717.73 323.99 750.1 346.5 717.74 310.86 717.73"/>
            <polygon class="cls-2" points="354.14 695.69 346.5 717.74 383.45 721.25 355.49 692.48 354.14 695.69"/>
            <polygon class="cls-2" points="345.47 779.17 324.18 751.97 369.42 748.38 345.47 779.17"/>
            <polygon class="cls-2" points="381.86 722.49 369.42 748.38 418.21 743.02 381.86 722.49"/>
            <polyline class="cls-2" points="411.98 693.18 463.89 706.98 418.21 743.02 410.65 693.09 355.49 692.48"/>
            <polygon class="cls-2" points="464.74 708.22 503.24 722.29 481.75 748.67 464.74 708.22"/>
            <polygon class="cls-2" points="418.21 743.02 481.75 748.67 455.62 784.41 418.12 744.41 418.21 743.02"/>
            <polygon class="cls-2" points="504.34 722.36 566.01 763.44 515.42 773.05 504.34 722.36"/>
            <polygon class="cls-2" points="492.32 793.51 514.2 772.97 481.75 748.67 492.32 793.51"/>
            <polygon class="cls-2" points="455.58 785.13 491.24 793.43 469.71 818.26 455.58 785.13"/>
            <polygon class="cls-2" points="347.07 780.01 319.99 814.49 367.18 801.49 347.07 780.01"/>
            <polygon class="cls-2" points="284.64 826.36 294.85 803.67 319.99 814.49 284.64 826.36"/>
            <polygon class="cls-2" points="263.12 835.37 283.72 826.3 292.16 865.6 263.05 836.42 263.12 835.37"/>
            <polygon class="cls-2" points="258.13 863.92 191.89 889.48 265.99 891.57 258.13 863.92"/>
            <polygon class="cls-2" points="259.41 864 292.16 865.6 308.17 894.4 259.41 864"/>
            <polygon class="cls-2" points="216.65 930.57 264.79 955.37 260.99 913.11 216.65 930.57"/>
            <polygon class="cls-2" points="265.43 892.69 260.94 913.82 308.17 894.4 265.43 892.69"/>
            <polygon class="cls-2" points="293.86 864.5 321.53 837.46 349.53 885.05 293.86 864.5"/>
            <polygon class="cls-2" points="319.88 816.07 321.62 836.05 405.49 816.05 319.88 816.07"/>
            <polygon class="cls-2" points="348.78 883.77 356.04 856.11 387.01 879.06 348.78 883.77"/>
            <polygon class="cls-2" points="356.14 854.65 405.49 816.05 421.7 861.92 356.14 854.65"/>
            <polygon class="cls-2" points="367.18 801.49 415.15 742.81 433.43 800.18 367.18 801.49"/>
            <polygon class="cls-2" points="405.57 814.95 433.43 800.18 469.31 817.32 405.49 816.05 405.57 814.95"/>
            <polygon class="cls-2" points="470.66 819.31 489.48 835.79 423.01 860.6 470.66 819.31"/>
            <polygon class="cls-2" points="489.56 834.73 492.26 794.39 509.33 815.16 489.56 834.73"/>
            <polygon class="cls-2" points="513.11 774.93 509.33 815.16 539.4 796.66 513.11 774.93"/>
            <polygon class="cls-2" points="566.01 763.44 596.7 792.76 539.4 796.66 565 764.36 566.01 763.44"/>
            <polygon class="cls-2" points="596.63 793.86 614.29 854.2 572.15 840.27 596.63 793.86"/>
            <polygon class="cls-2" points="538.15 799.44 539.55 840.25 572.27 838.47 538.15 799.44"/>
            <polygon class="cls-2" points="614.19 855.65 592.13 891.45 559.61 876.27 614.19 855.65"/>
            <polygon class="cls-2" points="572.08 841.33 559.61 876.27 510.4 860.7 572.08 841.33"/>
            <polygon class="cls-2" points="490.71 835.88 539.55 840.25 510.4 860.7 489.48 835.79 490.71 835.88"/>
            <polygon class="cls-2" points="592.03 892.92 522.63 939.27 517.56 896.3 592.03 892.92"/>
            <polygon class="cls-2" points="509.47 861.82 517.56 896.3 448.52 890.45 509.47 861.82"/>
            <polygon class="cls-2" points="422.82 863.45 447.11 889.32 398.79 900.47 422.82 863.45"/>
            <polygon class="cls-2" points="384.71 881.63 398.79 900.47 356.16 913.51 384.71 881.63"/>
            <polygon class="cls-2" points="324.51 914.49 347.84 886.58 355.28 913.46 324.51 914.49"/>
            <polygon class="cls-2" points="308.17 894.4 324.51 914.49 265.41 954.95 264.79 955.37 308.09 895.55 308.17 894.4"/>
            <polygon class="cls-2" points="264.69 956.9 350.77 980.78 311.14 946.56 264.69 956.9"/>
            <polygon class="cls-2" points="324.45 915.37 311.14 946.56 370.75 934.24 324.45 915.37"/>
            <polygon class="cls-2" points="354.52 955.83 370.75 934.24 407.6 947.27 355.42 957.23 354.52 955.83"/>
            <polygon class="cls-2" points="398.72 901.41 370.75 934.24 421.22 915 398.72 901.41"/>
            <polygon class="cls-2" points="445.67 891.49 421.22 915 443.27 927.34 447.04 890.35 445.67 891.49"/>
            <polygon class="cls-2" points="419.87 915.51 407.6 947.27 435.36 952.93 421.11 916.76 419.87 915.51"/>
            <polygon class="cls-2" points="444.5 928.29 435.36 952.93 496.15 920.02 444.5 928.29"/>
            <polyline class="cls-2" points="496.03 921.79 495.43 922.48 456.67 966.89 522.51 938.29 496.27 918.3 517.56 896.3 558.46 876.19"/>
            <line class="cls-2" x1="435.36" y1="952.93" x2="455.5" y2="966.78"/>
          </g>
        </g>
      </g>
      <g>
        <path class="cls-4" d="M1002.24,316.27v34.18h55.12v31.77h-55.12v37.07h62.34v32.98h-103.5v-168.97h103.5v32.98h-62.34Z"/>
        <path class="cls-4" d="M1120.42,274.15v178.12h-41.16v-178.12h41.16Z"/>
        <path class="cls-4" d="M1141.24,297.61c-4.57-4.25-6.86-9.51-6.86-15.77s2.29-11.75,6.86-16.01c4.57-4.25,10.47-6.38,17.69-6.38s12.88,2.13,17.45,6.38c4.57,4.25,6.86,9.59,6.86,16.01s-2.29,11.52-6.86,15.77c-4.57,4.25-10.39,6.38-17.45,6.38s-13.12-2.12-17.69-6.38ZM1179.39,317.95v134.31h-41.16v-134.31h41.16Z"/>
        <path class="cls-4" d="M1276.63,452.26l-25.75-37.31-21.66,37.31h-44.53l44.29-68.6-45.49-65.71h46.21l25.75,37.07,21.66-37.07h44.53l-45.01,67.64,46.21,66.67h-46.21Z"/>
        <path class="cls-4" d="M1329.7,297.61c-4.57-4.25-6.86-9.51-6.86-15.77s2.29-11.75,6.86-16.01c4.57-4.25,10.47-6.38,17.69-6.38s12.88,2.13,17.45,6.38c4.57,4.25,6.86,9.59,6.86,16.01s-2.29,11.52-6.86,15.77c-4.57,4.25-10.39,6.38-17.45,6.38s-13.12-2.12-17.69-6.38ZM1367.85,317.95v134.31h-41.16v-134.31h41.16Z"/>
        <path class="cls-4" d="M1444.88,322.89c7.22-4.25,15.24-6.38,24.07-6.38v43.57h-11.31c-10.27,0-17.97,2.21-23.11,6.62-5.14,4.42-7.7,12.16-7.7,23.23v62.34h-41.16v-134.31h41.16v22.38c4.81-7.38,10.83-13.2,18.05-17.45Z"/>
        <path class="cls-4" d="M964.93,526.87c7.22-13.08,17.29-23.26,30.21-30.57,12.92-7.3,27.56-10.95,43.93-10.95,20.06,0,37.23,5.29,51.51,15.89,14.28,10.59,23.83,25.03,28.64,43.33h-45.25c-3.37-7.06-8.15-12.43-14.32-16.13-6.18-3.69-13.2-5.54-21.06-5.54-12.68,0-22.95,4.42-30.81,13.24-7.86,8.83-11.79,20.62-11.79,35.38s3.93,26.56,11.79,35.38c7.86,8.83,18.13,13.24,30.81,13.24,7.86,0,14.88-1.84,21.06-5.54,6.18-3.69,10.95-9.06,14.32-16.13h45.25c-4.81,18.29-14.36,32.7-28.64,43.21-14.28,10.51-31.45,15.77-51.51,15.77-16.37,0-31.01-3.65-43.93-10.95-12.92-7.3-22.99-17.45-30.21-30.45-7.22-13-10.83-27.84-10.83-44.53s3.61-31.57,10.83-44.65Z"/>
        <path class="cls-4" d="M1132.1,552.51c5.21-10.43,12.31-18.45,21.3-24.07,8.98-5.61,19.01-8.42,30.09-8.42,9.47,0,17.77,1.93,24.91,5.78,7.14,3.85,12.64,8.91,16.49,15.16v-19.01h41.16v134.31h-41.16v-19.01c-4.01,6.26-9.59,11.31-16.73,15.16-7.14,3.85-15.45,5.78-24.91,5.78-10.91,0-20.86-2.85-29.85-8.54-8.99-5.69-16.09-13.8-21.3-24.31-5.22-10.51-7.82-22.66-7.82-36.47s2.61-25.91,7.82-36.34ZM1216.34,564.78c-5.7-5.93-12.64-8.91-20.82-8.91s-15.13,2.93-20.82,8.79c-5.7,5.86-8.54,13.92-8.54,24.19s2.85,18.41,8.54,24.43c5.69,6.02,12.64,9.03,20.82,9.03s15.12-2.97,20.82-8.91c5.69-5.93,8.54-14.04,8.54-24.31s-2.85-18.37-8.54-24.31Z"/>
        <path class="cls-4" d="M1343.06,526.87c7.22-4.25,15.24-6.38,24.07-6.38v43.57h-11.31c-10.27,0-17.97,2.21-23.11,6.62-5.14,4.42-7.7,12.16-7.7,23.23v62.34h-41.16v-134.31h41.16v22.38c4.81-7.38,10.83-13.2,18.05-17.45Z"/>
        <path class="cls-4" d="M1374.47,552.51c5.21-10.43,12.31-18.45,21.3-24.07,8.98-5.61,19.01-8.42,30.09-8.42,9.47,0,17.77,1.93,24.91,5.78,7.14,3.85,12.64,8.91,16.49,15.16v-19.01h41.16v134.31h-41.16v-19.01c-4.01,6.26-9.59,11.31-16.73,15.16-7.14,3.85-15.45,5.78-24.91,5.78-10.91,0-20.86-2.85-29.85-8.54-8.99-5.69-16.09-13.8-21.3-24.31-5.22-10.51-7.82-22.66-7.82-36.47s2.61-25.91,7.82-36.34ZM1458.72,564.78c-5.7-5.93-12.64-8.91-20.82-8.91s-15.13,2.93-20.82,8.79c-5.7,5.86-8.54,13.92-8.54,24.19s2.85,18.41,8.54,24.43c5.69,6.02,12.64,9.03,20.82,9.03s15.12-2.97,20.82-8.91c5.69-5.93,8.54-14.04,8.54-24.31s-2.85-18.37-8.54-24.31Z"/>
        <path class="cls-4" d="M1567.39,673.58c0,16.53-4.17,28.44-12.52,35.74-8.35,7.3-19.98,10.95-34.9,10.95h-16.13v-34.9h9.87c4.49,0,7.7-.88,9.63-2.65,1.92-1.77,2.89-4.66,2.89-8.67v-152.12h41.16v151.64ZM1529,501.6c-4.57-4.25-6.86-9.51-6.86-15.77s2.29-11.75,6.86-16.01c4.57-4.25,10.47-6.38,17.69-6.38s12.88,2.13,17.45,6.38c4.57,4.25,6.86,9.59,6.86,16.01s-2.29,11.52-6.86,15.77c-4.57,4.25-10.39,6.38-17.45,6.38s-13.12-2.12-17.69-6.38Z"/>
        <path class="cls-4" d="M1584.6,552.51c5.21-10.43,12.31-18.45,21.3-24.07,8.98-5.61,19.01-8.42,30.09-8.42,9.47,0,17.77,1.93,24.91,5.78,7.14,3.85,12.64,8.91,16.49,15.16v-19.01h41.16v134.31h-41.16v-19.01c-4.01,6.26-9.59,11.31-16.73,15.16-7.14,3.85-15.45,5.78-24.91,5.78-10.91,0-20.86-2.85-29.85-8.54-8.99-5.69-16.09-13.8-21.3-24.31-5.22-10.51-7.82-22.66-7.82-36.47s2.61-25.91,7.82-36.34ZM1668.84,564.78c-5.7-5.93-12.64-8.91-20.82-8.91s-15.13,2.93-20.82,8.79c-5.7,5.86-8.54,13.92-8.54,24.19s2.85,18.41,8.54,24.43c5.69,6.02,12.64,9.03,20.82,9.03s15.12-2.97,20.82-8.91c5.69-5.93,8.54-14.04,8.54-24.31s-2.85-18.37-8.54-24.31ZM1680.51,488.48l-58.01,24.31v-28.4l58.01-27.92v32.01Z"/>
        <path class="cls-4" d="M1759.7,652.16c-9.15-4.01-16.37-9.51-21.66-16.49-5.3-6.98-8.27-14.8-8.91-23.47h40.68c.48,4.66,2.65,8.42,6.5,11.31,3.85,2.89,8.58,4.33,14.2,4.33,5.13,0,9.11-1,11.91-3.01,2.81-2,4.21-4.61,4.21-7.82,0-3.85-2.01-6.7-6.02-8.54-4.01-1.84-10.51-3.89-19.5-6.14-9.63-2.25-17.65-4.61-24.07-7.1-6.42-2.49-11.96-6.42-16.61-11.79-4.66-5.38-6.98-12.64-6.98-21.78,0-7.7,2.12-14.72,6.38-21.06,4.25-6.34,10.51-11.35,18.77-15.04,8.26-3.69,18.09-5.54,29.49-5.54,16.85,0,30.12,4.17,39.84,12.52,9.71,8.35,15.28,19.42,16.73,33.22h-38.03c-.64-4.65-2.69-8.34-6.14-11.07-3.45-2.73-7.98-4.09-13.6-4.09-4.81,0-8.51.92-11.07,2.77-2.57,1.85-3.85,4.37-3.85,7.58,0,3.85,2.05,6.74,6.14,8.67,4.09,1.93,10.47,3.85,19.13,5.78,9.95,2.57,18.05,5.1,24.31,7.58,6.26,2.49,11.75,6.5,16.49,12.03,4.73,5.54,7.18,12.96,7.34,22.26,0,7.86-2.21,14.89-6.62,21.06-4.42,6.18-10.75,11.03-19.01,14.56-8.27,3.53-17.85,5.3-28.76,5.3-11.71,0-22.14-2-31.29-6.02Z"/>
        <path class="cls-4" d="M1152.44,691.26v168.97h-41.16v-101.33l-37.79,101.33h-33.22l-38.03-101.57v101.57h-41.16v-168.97h48.62l47.42,116.98,46.94-116.98h48.38Z"/>
        <path class="cls-4" d="M1295.89,802.95h-93.15c.64,8.35,3.33,14.72,8.06,19.14,4.73,4.42,10.55,6.62,17.45,6.62,10.27,0,17.41-4.33,21.42-13h43.81c-2.25,8.83-6.3,16.77-12.16,23.83-5.86,7.06-13.2,12.6-22.02,16.61-8.83,4.01-18.7,6.02-29.61,6.02-13.16,0-24.88-2.81-35.14-8.42-10.27-5.62-18.29-13.64-24.07-24.07-5.78-10.43-8.67-22.63-8.67-36.59s2.85-26.15,8.54-36.59c5.69-10.43,13.68-18.45,23.95-24.07,10.27-5.61,22.06-8.42,35.38-8.42s24.55,2.73,34.66,8.18c10.11,5.46,18.01,13.24,23.71,23.35,5.69,10.11,8.54,21.9,8.54,35.38,0,3.85-.24,7.86-.72,12.03ZM1254.49,780.08c0-7.06-2.41-12.67-7.22-16.85-4.81-4.17-10.83-6.26-18.05-6.26s-12.72,2.01-17.45,6.02c-4.74,4.01-7.67,9.71-8.79,17.09h51.51Z"/>
        <path class="cls-4" d="M1432.13,802.95h-93.15c.64,8.35,3.33,14.72,8.06,19.14,4.73,4.42,10.55,6.62,17.45,6.62,10.27,0,17.41-4.33,21.42-13h43.81c-2.25,8.83-6.3,16.77-12.16,23.83-5.86,7.06-13.2,12.6-22.02,16.61-8.83,4.01-18.7,6.02-29.61,6.02-13.16,0-24.88-2.81-35.14-8.42-10.27-5.62-18.29-13.64-24.07-24.07-5.78-10.43-8.67-22.63-8.67-36.59s2.85-26.15,8.54-36.59c5.69-10.43,13.68-18.45,23.95-24.07,10.27-5.61,22.06-8.42,35.38-8.42s24.55,2.73,34.66,8.18c10.11,5.46,18.01,13.24,23.71,23.35,5.69,10.11,8.54,21.9,8.54,35.38,0,3.85-.24,7.86-.72,12.03ZM1390.73,780.08c0-7.06-2.41-12.67-7.22-16.85-4.81-4.17-10.83-6.26-18.05-6.26s-12.72,2.01-17.45,6.02c-4.74,4.01-7.67,9.71-8.79,17.09h51.51Z"/>
        <path class="cls-4" d="M1517.33,825.33v34.9h-20.94c-14.92,0-26.56-3.65-34.9-10.95-8.35-7.3-12.52-19.21-12.52-35.74v-53.43h-16.37v-34.18h16.37v-32.74h41.16v32.74h26.96v34.18h-26.96v53.92c0,4.01.96,6.9,2.89,8.67,1.93,1.77,5.13,2.65,9.63,2.65h14.68Z"/>
        <path class="cls-4" d="M1660.78,725.93v134.31h-41.16v-18.29c-4.17,5.94-9.83,10.71-16.97,14.32-7.14,3.61-15.04,5.42-23.71,5.42-10.27,0-19.34-2.29-27.2-6.86-7.86-4.57-13.96-11.19-18.29-19.86-4.33-8.67-6.5-18.85-6.5-30.57v-78.47h40.92v72.93c0,8.99,2.32,15.97,6.98,20.94,4.65,4.98,10.91,7.46,18.77,7.46s14.36-2.49,19.02-7.46c4.65-4.97,6.98-11.95,6.98-20.94v-72.93h41.16Z"/>
        <path class="cls-4" d="M1736.12,729.78c7.06-3.85,15.32-5.78,24.79-5.78,11.07,0,21.1,2.81,30.09,8.42,8.99,5.62,16.08,13.64,21.3,24.07,5.21,10.43,7.82,22.55,7.82,36.34s-2.61,25.96-7.82,36.47c-5.22,10.51-12.32,18.62-21.3,24.31-8.99,5.7-19.01,8.54-30.09,8.54-9.31,0-17.53-1.93-24.67-5.78-7.14-3.85-12.72-8.82-16.73-14.92v82.8h-41.16v-198.33h41.16v19.01c4.01-6.26,9.55-11.31,16.61-15.16ZM1769.7,768.65c-5.7-5.86-12.72-8.79-21.06-8.79s-15.13,2.97-20.82,8.91c-5.7,5.94-8.54,14.04-8.54,24.31s2.85,18.38,8.54,24.31c5.69,5.94,12.64,8.91,20.82,8.91s15.16-3.01,20.94-9.03c5.78-6.02,8.67-14.16,8.67-24.43s-2.85-18.33-8.54-24.19Z"/>
      </g>
    </g>
    <g class="cls-13">
      <g class="cls-11">
        <path class="cls-5" d="M670.3,631.86c0,178.4-150.05,323.02-335.15,323.02-156.13,0-287.33-102.9-324.56-242.18,54.69,93.98,159.06,157.5,278.82,157.5,176.43,0,319.47-137.86,319.47-307.9S422.71,175.56,334.6,85.04c.36-.34.54-.5.54-.5,0,0,335.15,307.08,335.15,547.32Z"/>
      </g>
    </g>
  </g>
</svg>